<svg width="95" height="19" xmlns="http://www.w3.org/2000/svg" xmlns:xlink="http://www.w3.org/1999/xlink">
    <defs>
        <path id="a" d="M0 0h960v1080H0z"/>
    </defs>
    <g fill="none" fill-rule="evenodd">
        <use fill-rule="nonzero" xlink:href="#a" transform="translate(-161 -68)"/>
        <path d="M.728.816h10.896v3.072H3.968v4.176h6.888v3.072H3.968V18H.728V.816zm19.964 15.648H20.5a3.985 3.985 0 01-1.488 1.404c-.624.344-1.336.516-2.136.516-1.488 0-2.596-.456-3.324-1.368-.728-.912-1.092-2.128-1.092-3.648V6.24h3.144v6.744c0 .848.188 1.476.564 1.884.376.408.924.612 1.644.612a2.29 2.29 0 001.14-.276c.328-.184.608-.432.84-.744.232-.312.408-.68.528-1.104.12-.424.18-.876.18-1.356V6.24h3.144V18h-2.952v-1.536zm4.94-10.224h2.952v1.632h.192c.144-.288.336-.552.576-.792.24-.24.508-.448.804-.624.296-.176.616-.312.96-.408a3.782 3.782 0 011.02-.144c.416 0 .772.04 1.068.12.296.08.548.184.756.312l-.84 2.856a2.982 2.982 0 00-.636-.228 3.69 3.69 0 00-.852-.084c-.432 0-.824.084-1.176.252a2.585 2.585 0 00-.9.708c-.248.304-.44.66-.576 1.068a4.189 4.189 0 00-.204 1.332V18h-3.144V6.24zm12.02 1.536h.192a3.985 3.985 0 011.488-1.404c.624-.344 1.336-.516 2.136-.516.736 0 1.384.12 1.944.36s1.02.58 1.38 1.02c.36.44.632.968.816 1.584.184.616.276 1.3.276 2.052V18H42.74v-6.744c0-.848-.188-1.476-.564-1.884-.376-.408-.924-.612-1.644-.612a2.29 2.29 0 00-1.14.276 2.662 2.662 0 00-.84.744c-.232.312-.408.68-.528 1.104-.12.424-.18.876-.18 1.356V18H34.7V6.24h2.952v1.536zm11.876-3.24c-.272 0-.532-.052-.78-.156a2 2 0 01-1.08-1.068 1.97 1.97 0 01-.156-.792 1.97 1.97 0 01.588-1.428 2 2 0 01.648-.432c.248-.104.508-.156.78-.156.56 0 1.04.196 1.44.588.4.392.6.868.6 1.428 0 .56-.2 1.036-.6 1.428-.4.392-.88.588-1.44.588zM47.968 18V6.24h3.144V18h-3.144zm6.5-9.072h-2.064V6.24h2.064v-3.6h3.144v3.6h2.88v2.688h-2.88v4.56c0 .272.028.524.084.756.056.232.164.428.324.588.224.256.544.384.96.384.272 0 .488-.028.648-.084.16-.056.312-.132.456-.228l.888 2.76a5.183 5.183 0 01-1.188.396 6.921 6.921 0 01-1.404.132 4.365 4.365 0 01-1.596-.276 3.4 3.4 0 01-1.188-.756c-.752-.72-1.128-1.744-1.128-3.072v-5.16zm15.764 7.536h-.192a3.985 3.985 0 01-1.488 1.404c-.624.344-1.336.516-2.136.516-1.488 0-2.596-.456-3.324-1.368-.728-.912-1.092-2.128-1.092-3.648V6.24h3.144v6.744c0 .848.188 1.476.564 1.884.376.408.924.612 1.644.612a2.29 2.29 0 001.14-.276c.328-.184.608-.432.84-.744.232-.312.408-.68.528-1.104.12-.424.18-.876.18-1.356V6.24h3.144V18h-2.952v-1.536zm4.94-10.224h2.952v1.632h.192c.144-.288.336-.552.576-.792.24-.24.508-.448.804-.624.296-.176.616-.312.96-.408a3.782 3.782 0 011.02-.144c.416 0 .772.04 1.068.12.296.08.548.184.756.312l-.84 2.856a2.982 2.982 0 00-.636-.228 3.69 3.69 0 00-.852-.084c-.432 0-.824.084-1.176.252a2.585 2.585 0 00-.9.708c-.248.304-.44.66-.576 1.068a4.189 4.189 0 00-.204 1.332V18h-3.144V6.24zm19.484 8.928a6.589 6.589 0 01-2.196 2.328c-.92.592-2.044.888-3.372.888a6.478 6.478 0 01-2.484-.468 5.977 5.977 0 01-1.98-1.308 5.977 5.977 0 01-1.308-1.98c-.312-.76-.468-1.596-.468-2.508 0-.848.152-1.652.456-2.412a6.15 6.15 0 011.272-1.992 6.15 6.15 0 011.932-1.356c.744-.336 1.564-.504 2.46-.504.944 0 1.784.156 2.52.468a5.14 5.14 0 011.848 1.296 5.577 5.577 0 011.128 1.956 7.55 7.55 0 01.384 2.448v.288a1.616 1.616 0 00-.024.264c-.016.08-.024.168-.024.264h-8.856c.064.48.196.892.396 1.236s.448.632.744.864c.296.232.62.4.972.504.352.104.712.156 1.08.156.72 0 1.316-.164 1.788-.492a3.59 3.59 0 001.116-1.236l2.616 1.296zm-2.856-4.56a2.036 2.036 0 00-.204-.696 2.45 2.45 0 00-.528-.72 2.764 2.764 0 00-.864-.552c-.344-.144-.756-.216-1.236-.216A2.88 2.88 0 0087.192 9c-.512.384-.872.92-1.08 1.608H91.8z"
              fill="#2C2E3F"/>
    </g>
</svg>